<svg width="24" height="24" viewBox="0 0 24 24" fill="none" xmlns="http://www.w3.org/2000/svg">
<g clip-path="url(#clip0_1462_274)">
<path d="M12.145 19.519C15.617 19.519 14.379 17.4056 14.647 16.7979C14.643 16.344 14.639 15.9075 14.655 15.6421C14.875 15.7017 15.394 15.9546 16.466 16.9565C18.121 18.5623 18.544 19.519 19.881 19.519H22.342C23.122 19.519 23.528 19.2084 23.731 18.9479C23.927 18.6959 24.119 18.2536 23.909 17.5652C23.36 15.9075 20.158 13.045 19.959 12.7431C19.989 12.6873 20.037 12.6133 20.062 12.5748H20.06C20.692 11.7719 23.104 8.29691 23.459 6.90652C23.46 6.9046 23.461 6.90172 23.461 6.89883C23.653 6.26422 23.477 5.85268 23.295 5.61999C23.021 5.27191 22.585 5.09595 21.996 5.09595H19.535C18.711 5.09595 18.086 5.49499 17.77 6.22287C17.241 7.51614 15.755 10.1758 14.641 11.1171C14.607 9.78345 14.63 8.76518 14.648 8.00845C14.684 6.53249 14.8 5.09595 13.207 5.09595H9.339C8.341 5.09595 7.386 6.14402 8.42 7.38825C9.324 8.47864 8.745 9.08633 8.94 12.1113C8.18 11.3277 6.828 9.21133 5.872 6.50652C5.604 5.77479 5.198 5.09691 4.055 5.09691H1.594C0.596 5.09691 0 5.61999 0 6.49595C0 8.46325 4.529 19.519 12.145 19.519ZM4.055 6.53922C4.272 6.53922 4.294 6.53922 4.455 6.97864C5.434 9.75075 7.63 13.8527 9.234 13.8527C10.439 13.8527 10.439 12.6652 10.439 12.2181L10.438 8.65845C10.372 7.48056 9.926 6.89402 9.633 6.53825L13.141 6.5421C13.143 6.55845 13.121 10.4796 13.151 11.4296C13.151 12.7786 14.265 13.5517 16.004 11.8594C17.839 9.86806 19.108 6.89114 19.159 6.76999C19.234 6.59691 19.299 6.53825 19.535 6.53825H21.996H22.006C22.005 6.54114 22.005 6.54402 22.004 6.54691C21.779 7.55652 19.558 10.7738 18.815 11.7729C18.803 11.7883 18.792 11.8046 18.781 11.8209C18.454 12.3344 18.188 12.9017 18.826 13.6998H18.827C18.885 13.7671 19.036 13.9248 19.256 14.144C19.94 14.8229 22.286 17.144 22.494 18.0671C22.356 18.0883 22.206 18.0729 19.881 18.0777C19.386 18.0777 18.999 17.3661 17.522 15.9334C16.194 14.6911 15.332 14.1834 14.547 14.1834C13.023 14.1834 13.134 15.3729 13.148 16.8113C13.153 18.3709 13.143 17.8777 13.154 17.9758C13.065 18.0094 12.81 18.0767 12.145 18.0767C5.8 18.0767 1.668 8.39306 1.509 6.5421C1.564 6.53729 2.321 6.54018 4.055 6.53922Z" fill="#5F6B77"/>
</g>
<defs>
<clipPath id="clip0_1462_274">
<rect width="24" height="23.0769" fill="white" transform="translate(0 0.769043)"/>
</clipPath>
</defs>
</svg>
